{
	"asset":{
		"generator":"Khronos glTF Blender I/O v3.5.30",
		"version":"2.0"
	},
	"scene":0,
	"scenes":[
		{
			"name":"Scene",
			"nodes":[
				0
			]
		}
	],
	"nodes":[
		{
			"mesh":0,
			"name":"TwistedVase_solid",
			"scale":[
				0.10000003129243851,
				0.10000000149011612,
				0.10000000149011612
			]
		}
	],
	"materials":[
		{
			"doubleSided":true,
			"name":"Material.001",
			"pbrMetallicRoughness":{
				"baseColorTexture":{
					"index":0
				},
				"metallicFactor":0,
				"roughnessFactor":0.5
			}
		}
	],
	"meshes":[
		{
			"name":"TwistedVase_solid",
			"primitives":[
				{
					"attributes":{
						"POSITION":0,
						"NORMAL":1
					},
					"indices":2,
					"material":0
				}
			]
		}
	],
	"textures":[
		{
			"sampler":0,
			"source":0
		}
	],
	"images":[
		{
			"bufferView":3,
			"mimeType":"image/jpeg",
			"name":"jomon"
		}
	],
	"accessors":[
		{
			"bufferView":0,
			"componentType":5126,
			"count":28610,
			"max":[
				2.9998741149902344,
				9.899999618530273,
				2.9998741149902344
			],
			"min":[
				-2.9998741149902344,
				0,
				-2.9998741149902344
			],
			"type":"VEC3"
		},
		{
			"bufferView":1,
			"componentType":5126,
			"count":28610,
			"type":"VEC3"
		},
		{
			"bufferView":2,
			"componentType":5123,
			"count":28800,
			"type":"SCALAR"
		}
	],
	"bufferViews":[
		{
			"buffer":0,
			"byteLength":343320,
			"byteOffset":0,
			"target":34962
		},
		{
			"buffer":0,
			"byteLength":343320,
			"byteOffset":343320,
			"target":34962
		},
		{
			"buffer":0,
			"byteLength":57600,
			"byteOffset":686640,
			"target":34963
		},
		{
			"buffer":0,
			"byteLength":112440,
			"byteOffset":744240
		}
	],
	"samplers":[
		{
			"magFilter":9729,
			"minFilter":9987
		}
	],
	"buffers":[
		{
			"byteLength":856680,
			"uri":"data:application/octet-stream;base64,"
		}
	]
}
