{
	"asset":{
		"generator":"Khronos glTF Blender I/O v3.5.30",
		"version":"2.0"
	},
	"scene":0,
	"scenes":[
		{
			"name":"Scene",
			"nodes":[
				0,
				1,
				2
			]
		}
	],
	"nodes":[
		{
			"mesh":0,
			"name":"Cylinder",
			"scale":[
				0.15771932899951935,
				1,
				0.11055728793144226
			],
			"translation":[
				0,
				0.9387121796607971,
				0
			]
		},
		{
			"mesh":1,
			"name":"Cylinder.001",
			"rotation":[
				0.01704837940633297,
				0.8538489937782288,
				0.12249688059091568,
				0.5056142807006836
			],
			"scale":[
				0.15771932899951935,
				1,
				0.11055729538202286
			],
			"translation":[
				0.2527678608894348,
				0.8142090439796448,
				0.38905349373817444
			]
		},
		{
			"mesh":2,
			"name":"Cylinder.002",
			"rotation":[
				-0.21745949983596802,
				-0.6922953724861145,
				0.11026982963085175,
				0.6791752576828003
			],
			"scale":[
				0.11118870973587036,
				0.704978346824646,
				0.07794048637151718
			],
			"translation":[
				0.20304784178733826,
				0.5207378268241882,
				-0.3509271740913391
			]
		}
	],
	"materials":[
		{
			"doubleSided":true,
			"name":"Material.001",
			"pbrMetallicRoughness":{
				"baseColorTexture":{
					"index":0
				},
				"metallicFactor":0,
				"roughnessFactor":0.5
			}
		}
	],
	"meshes":[
		{
			"name":"Cylinder",
			"primitives":[
				{
					"attributes":{
						"POSITION":0,
						"TEXCOORD_0":1,
						"NORMAL":2
					},
					"indices":3,
					"material":0
				}
			]
		},
		{
			"name":"Cylinder.001",
			"primitives":[
				{
					"attributes":{
						"POSITION":4,
						"TEXCOORD_0":5,
						"NORMAL":6
					},
					"indices":3,
					"material":0
				}
			]
		},
		{
			"name":"Cylinder.002",
			"primitives":[
				{
					"attributes":{
						"POSITION":7,
						"TEXCOORD_0":8,
						"NORMAL":9
					},
					"indices":3,
					"material":0
				}
			]
		}
	],
	"textures":[
		{
			"sampler":0,
			"source":0
		}
	],
	"images":[
		{
			"bufferView":4,
			"mimeType":"image/png",
			"name":"brentnewhall_ice_texture_cold_video_game_texture_8a0ededd-1bec-47b5-b4cd-fca5a2d7319c"
		}
	],
	"accessors":[
		{
			"bufferView":0,
			"componentType":5126,
			"count":30,
			"max":[
				0.9510565400123596,
				1.2064865827560425,
				0.80901700258255
			],
			"min":[
				-0.9510565400123596,
				-1,
				-1
			],
			"type":"VEC3"
		},
		{
			"bufferView":1,
			"componentType":5126,
			"count":30,
			"type":"VEC2"
		},
		{
			"bufferView":2,
			"componentType":5126,
			"count":30,
			"type":"VEC3"
		},
		{
			"bufferView":3,
			"componentType":5123,
			"count":48,
			"type":"SCALAR"
		},
		{
			"bufferView":5,
			"componentType":5126,
			"count":30,
			"max":[
				0.9510565400123596,
				1.0890589952468872,
				0.80901700258255
			],
			"min":[
				-0.9510565400123596,
				-1,
				-1
			],
			"type":"VEC3"
		},
		{
			"bufferView":6,
			"componentType":5126,
			"count":30,
			"type":"VEC2"
		},
		{
			"bufferView":7,
			"componentType":5126,
			"count":30,
			"type":"VEC3"
		},
		{
			"bufferView":8,
			"componentType":5126,
			"count":30,
			"max":[
				0.9510565400123596,
				1.1605019569396973,
				0.80901700258255
			],
			"min":[
				-0.9510565400123596,
				-1,
				-1
			],
			"type":"VEC3"
		},
		{
			"bufferView":9,
			"componentType":5126,
			"count":30,
			"type":"VEC2"
		},
		{
			"bufferView":10,
			"componentType":5126,
			"count":30,
			"type":"VEC3"
		}
	],
	"bufferViews":[
		{
			"buffer":0,
			"byteLength":360,
			"byteOffset":0,
			"target":34962
		},
		{
			"buffer":0,
			"byteLength":240,
			"byteOffset":360,
			"target":34962
		},
		{
			"buffer":0,
			"byteLength":360,
			"byteOffset":600,
			"target":34962
		},
		{
			"buffer":0,
			"byteLength":96,
			"byteOffset":960,
			"target":34963
		},
		{
			"buffer":0,
			"byteLength":1747808,
			"byteOffset":1056
		},
		{
			"buffer":0,
			"byteLength":360,
			"byteOffset":1748864,
			"target":34962
		},
		{
			"buffer":0,
			"byteLength":240,
			"byteOffset":1749224,
			"target":34962
		},
		{
			"buffer":0,
			"byteLength":360,
			"byteOffset":1749464,
			"target":34962
		},
		{
			"buffer":0,
			"byteLength":360,
			"byteOffset":1749824,
			"target":34962
		},
		{
			"buffer":0,
			"byteLength":240,
			"byteOffset":1750184,
			"target":34962
		},
		{
			"buffer":0,
			"byteLength":360,
			"byteOffset":1750424,
			"target":34962
		}
	],
	"samplers":[
		{
			"magFilter":9729,
			"minFilter":9987
		}
	],
	"buffers":[
		{
			"byteLength":1750784,
			"uri":"data:application/octet-stream;base64,"
		}
	]
}
