{
	"asset":{
		"generator":"Khronos glTF Blender I/O v3.5.30",
		"version":"2.0"
	},
	"scene":0,
	"scenes":[
		{
			"name":"Scene",
			"nodes":[
				0
			]
		}
	],
	"nodes":[
		{
			"mesh":0,
			"name":"Plane",
			"scale":[
				5,
				1,
				5
			]
		}
	],
	"materials":[
		{
			"doubleSided":true,
			"name":"Material.001",
			"pbrMetallicRoughness":{
				"baseColorTexture":{
					"index":0
				},
				"metallicFactor":0,
				"roughnessFactor":0.5
			}
		}
	],
	"meshes":[
		{
			"name":"Plane",
			"primitives":[
				{
					"attributes":{
						"POSITION":0,
						"TEXCOORD_0":1,
						"NORMAL":2
					},
					"indices":3,
					"material":0
				}
			]
		}
	],
	"textures":[
		{
			"sampler":0,
			"source":0
		}
	],
	"images":[
		{
			"bufferView":4,
			"mimeType":"image/jpeg",
			"name":"Mountain Rock-031-medium-square"
		}
	],
	"accessors":[
		{
			"bufferView":0,
			"componentType":5126,
			"count":2227,
			"max":[
				1,
				0.43198317289352417,
				1
			],
			"min":[
				-1,
				-0.005982629489153624,
				-1
			],
			"type":"VEC3"
		},
		{
			"bufferView":1,
			"componentType":5126,
			"count":2227,
			"type":"VEC2"
		},
		{
			"bufferView":2,
			"componentType":5126,
			"count":2227,
			"type":"VEC3"
		},
		{
			"bufferView":3,
			"componentType":5123,
			"count":6144,
			"type":"SCALAR"
		}
	],
	"bufferViews":[
		{
			"buffer":0,
			"byteLength":26724,
			"byteOffset":0,
			"target":34962
		},
		{
			"buffer":0,
			"byteLength":17816,
			"byteOffset":26724,
			"target":34962
		},
		{
			"buffer":0,
			"byteLength":26724,
			"byteOffset":44540,
			"target":34962
		},
		{
			"buffer":0,
			"byteLength":12288,
			"byteOffset":71264,
			"target":34963
		},
		{
			"buffer":0,
			"byteLength":1301040,
			"byteOffset":83552
		}
	],
	"samplers":[
		{
			"magFilter":9729,
			"minFilter":9987
		}
	],
	"buffers":[
		{
			"byteLength":1384592,
			"uri":"data:application/octet-stream;base64,"
		}
	]
}
