{
	"asset":{
		"generator":"Khronos glTF Blender I/O v3.5.30",
		"version":"2.0"
	},
	"scene":0,
	"scenes":[
		{
			"name":"Scene",
			"nodes":[
				10
			]
		}
	],
	"nodes":[
		{
			"mesh":0,
			"name":"Circle.005",
			"scale":[
				1.0011183023452759,
				1.4340423345565796,
				1.0011183023452759
			],
			"translation":[
				0,
				2.9746947288513184,
				0
			]
		},
		{
			"mesh":1,
			"name":"Cube.065",
			"rotation":[
				0,
				0.7071068286895752,
				0,
				0.7071068286895752
			],
			"scale":[
				0.3537471294403076,
				0.3675849437713623,
				0.3537471294403076
			],
			"translation":[
				-0.010142378509044647,
				0.3475515842437744,
				0.8488418459892273
			]
		},
		{
			"mesh":1,
			"name":"Cube.066",
			"rotation":[
				0,
				-1,
				0,
				1.0331604016755591e-07
			],
			"scale":[
				0.3537471294403076,
				0.3675849437713623,
				0.3537471294403076
			],
			"translation":[
				0.8501797914505005,
				0.3475515842437744,
				-0.060938626527786255
			]
		},
		{
			"mesh":2,
			"name":"Cube.067",
			"rotation":[
				0,
				-1,
				0,
				1.0331604016755591e-07
			],
			"scale":[
				0.3537471294403076,
				0.41230309009552,
				0.3537471294403076
			],
			"translation":[
				1.1436232328414917,
				0.059052228927612305,
				-0.47734421491622925
			]
		},
		{
			"mesh":3,
			"name":"Cylinder.032",
			"rotation":[
				0.7071068286895752,
				0,
				0,
				0.7071068286895752
			],
			"scale":[
				0.010548069141805172,
				0.010548069141805172,
				0.010960686020553112
			],
			"translation":[
				0.1574706733226776,
				0.38879871368408203,
				0.9312439560890198
			]
		},
		{
			"mesh":3,
			"name":"Cylinder.033",
			"rotation":[
				0.5,
				0.5000000596046448,
				-0.5000000596046448,
				0.49999991059303284
			],
			"scale":[
				0.010548069141805172,
				0.010548069141805172,
				0.010960686020553112
			],
			"translation":[
				0.932581901550293,
				0.38879871368408203,
				-0.22855167090892792
			]
		},
		{
			"mesh":4,
			"name":"stairs.011",
			"rotation":[
				0.5000000596046448,
				0.5,
				-0.5,
				0.5
			],
			"scale":[
				0.00857051182538271,
				0.0016306693432852626,
				0.008905772119760513
			],
			"translation":[
				0.11628581583499908,
				2.939572811126709,
				0.16434940695762634
			]
		},
		{
			"mesh":5,
			"name":"Torus.032",
			"rotation":[
				0.7071068286895752,
				0,
				0,
				0.7071068286895752
			],
			"scale":[
				0.01751304231584072,
				0.01751304231584072,
				0.01819811388850212
			],
			"translation":[
				0.15778374671936035,
				0.37243080139160156,
				0.950821578502655
			]
		},
		{
			"mesh":5,
			"name":"Torus.033",
			"rotation":[
				0.5,
				0.5000000596046448,
				-0.5000000596046448,
				0.49999991059303284
			],
			"scale":[
				0.01751304231584072,
				0.01751304231584072,
				0.01819811388850212
			],
			"translation":[
				0.9521595239639282,
				0.37243080139160156,
				-0.22886472940444946
			]
		},
		{
			"mesh":6,
			"name":"wall2.001",
			"rotation":[
				0,
				-0.70710688829422,
				0,
				0.7071066498756409
			],
			"scale":[
				0.3537471294403076,
				0.3675849437713623,
				0.3537471294403076
			],
			"translation":[
				0.4278441071510315,
				-1.1136623620986938,
				0.39836156368255615
			]
		},
		{
			"children":[
				0,
				1,
				2,
				3,
				4,
				5,
				6,
				7,
				8,
				9
			],
			"mesh":7,
			"name":"castle tower4.003",
			"scale":[
				2.826878070831299,
				2.7204596996307373,
				2.826878070831299
			],
			"translation":[
				-0.10531806945800781,
				5.688739776611328,
				0.6762580871582031
			]
		}
	],
	"materials":[
		{
			"doubleSided":true,
			"name":"wall",
			"pbrMetallicRoughness":{
				"baseColorTexture":{
					"index":0
				},
				"metallicFactor":0,
				"metallicRoughnessTexture":{
					"index":1
				}
			}
		},
		{
			"doubleSided":true,
			"name":"roof",
			"pbrMetallicRoughness":{
				"metallicFactor":0,
				"metallicRoughnessTexture":{
					"index":2
				}
			}
		},
		{
			"doubleSided":true,
			"name":"door stone",
			"pbrMetallicRoughness":{
				"metallicFactor":0,
				"metallicRoughnessTexture":{
					"index":3
				}
			}
		},
		{
			"doubleSided":true,
			"name":"Metal2",
			"pbrMetallicRoughness":{
				"baseColorFactor":[
					0.10429193079471588,
					0.10429193079471588,
					0.10429193079471588,
					1
				],
				"metallicFactor":0.5401988625526428,
				"roughnessFactor":0.5
			}
		},
		{
			"doubleSided":true,
			"name":"door",
			"pbrMetallicRoughness":{
				"metallicFactor":0
			}
		},
		{
			"doubleSided":true,
			"name":"Metal1",
			"pbrMetallicRoughness":{
				"baseColorFactor":[
					0.21994876861572266,
					0.21994876861572266,
					0.21994876861572266,
					1
				],
				"metallicFactor":0.7265625,
				"roughnessFactor":0.5
			}
		},
		{
			"doubleSided":true,
			"name":"stairs",
			"pbrMetallicRoughness":{
				"baseColorFactor":[
					0.07640773802995682,
					0.0338112898170948,
					0.0034296181984245777,
					1
				],
				"metallicFactor":0,
				"roughnessFactor":0.5
			}
		}
	],
	"meshes":[
		{
			"name":"Circle.008",
			"primitives":[
				{
					"attributes":{
						"POSITION":0,
						"TEXCOORD_0":1,
						"NORMAL":2
					},
					"indices":3,
					"material":0
				},
				{
					"attributes":{
						"POSITION":4,
						"TEXCOORD_0":5,
						"NORMAL":6
					},
					"indices":7,
					"material":1
				}
			]
		},
		{
			"name":"Cube.105",
			"primitives":[
				{
					"attributes":{
						"POSITION":8,
						"TEXCOORD_0":9,
						"NORMAL":10
					},
					"indices":11,
					"material":2
				},
				{
					"attributes":{
						"POSITION":12,
						"TEXCOORD_0":13,
						"NORMAL":14
					},
					"indices":15,
					"material":3
				},
				{
					"attributes":{
						"POSITION":16,
						"TEXCOORD_0":17,
						"NORMAL":18
					},
					"indices":19,
					"material":4
				}
			]
		},
		{
			"name":"Cube.106",
			"primitives":[
				{
					"attributes":{
						"POSITION":20,
						"TEXCOORD_0":21,
						"NORMAL":22
					},
					"indices":23,
					"material":0
				}
			]
		},
		{
			"name":"Cylinder.025",
			"primitives":[
				{
					"attributes":{
						"POSITION":24,
						"TEXCOORD_0":25,
						"NORMAL":26
					},
					"indices":27,
					"material":5
				}
			]
		},
		{
			"name":"Cube.108",
			"primitives":[
				{
					"attributes":{
						"POSITION":28,
						"TEXCOORD_0":29,
						"NORMAL":30
					},
					"indices":31,
					"material":6
				}
			]
		},
		{
			"name":"Torus.025",
			"primitives":[
				{
					"attributes":{
						"POSITION":32,
						"TEXCOORD_0":33,
						"NORMAL":34
					},
					"indices":35,
					"material":5
				}
			]
		},
		{
			"name":"Cube.107",
			"primitives":[
				{
					"attributes":{
						"POSITION":36,
						"TEXCOORD_0":37,
						"NORMAL":38
					},
					"indices":39,
					"material":0
				}
			]
		},
		{
			"name":"Circle.009",
			"primitives":[
				{
					"attributes":{
						"POSITION":40,
						"TEXCOORD_0":41,
						"NORMAL":42
					},
					"indices":43,
					"material":0
				}
			]
		}
	],
	"textures":[
		{
			"sampler":0,
			"source":0
		},
		{
			"sampler":0,
			"source":1
		},
		{
			"sampler":0,
			"source":1
		},
		{
			"sampler":0,
			"source":1
		}
	],
	"images":[
		{
			"bufferView":4,
			"mimeType":"image/jpeg",
			"name":"sandy_brick_seamless_texture_by_galato901_d87g1i7-fullview"
		},
		{
			"bufferView":5,
			"mimeType":"image/png",
			"name":"Image"
		}
	],
	"accessors":[
		{
			"bufferView":0,
			"componentType":5126,
			"count":460,
			"max":[
				0.9951112270355225,
				0.1139984130859375,
				0.9951112270355225
			],
			"min":[
				-0.995111346244812,
				-0.20238208770751953,
				-0.9951112866401672
			],
			"type":"VEC3"
		},
		{
			"bufferView":1,
			"componentType":5126,
			"count":460,
			"type":"VEC2"
		},
		{
			"bufferView":2,
			"componentType":5126,
			"count":460,
			"type":"VEC3"
		},
		{
			"bufferView":3,
			"componentType":5123,
			"count":960,
			"type":"SCALAR"
		},
		{
			"bufferView":6,
			"componentType":5126,
			"count":56,
			"max":[
				0.8906975984573364,
				-0.033093810081481934,
				0.8906972408294678
			],
			"min":[
				-0.8906976580619812,
				-1.4539434909820557,
				-0.8906974792480469
			],
			"type":"VEC3"
		},
		{
			"bufferView":7,
			"componentType":5126,
			"count":56,
			"type":"VEC2"
		},
		{
			"bufferView":8,
			"componentType":5126,
			"count":56,
			"type":"VEC3"
		},
		{
			"bufferView":9,
			"componentType":5123,
			"count":138,
			"type":"SCALAR"
		},
		{
			"bufferView":10,
			"componentType":5126,
			"count":60,
			"max":[
				0.07734514772891998,
				1.3145729303359985,
				0.6852952241897583
			],
			"min":[
				-0.2731734812259674,
				-0.9960993528366089,
				-0.6852952241897583
			],
			"type":"VEC3"
		},
		{
			"bufferView":11,
			"componentType":5126,
			"count":60,
			"type":"VEC2"
		},
		{
			"bufferView":12,
			"componentType":5126,
			"count":60,
			"type":"VEC3"
		},
		{
			"bufferView":13,
			"componentType":5123,
			"count":102,
			"type":"SCALAR"
		},
		{
			"bufferView":14,
			"componentType":5126,
			"count":860,
			"max":[
				-0.23983179032802582,
				1.2316995859146118,
				0.5941081643104553
			],
			"min":[
				-0.25756967067718506,
				-0.9132259488105774,
				-0.5941081643104553
			],
			"type":"VEC3"
		},
		{
			"bufferView":15,
			"componentType":5126,
			"count":860,
			"type":"VEC2"
		},
		{
			"bufferView":16,
			"componentType":5126,
			"count":860,
			"type":"VEC3"
		},
		{
			"bufferView":17,
			"componentType":5123,
			"count":1650,
			"type":"SCALAR"
		},
		{
			"bufferView":18,
			"componentType":5126,
			"count":244,
			"max":[
				-0.1756591498851776,
				1.2316995859146118,
				0.5941081643104553
			],
			"min":[
				-0.23983179032802582,
				-0.9132259488105774,
				-0.5941081643104553
			],
			"type":"VEC3"
		},
		{
			"bufferView":19,
			"componentType":5126,
			"count":244,
			"type":"VEC2"
		},
		{
			"bufferView":20,
			"componentType":5126,
			"count":244,
			"type":"VEC3"
		},
		{
			"bufferView":21,
			"componentType":5123,
			"count":444,
			"type":"SCALAR"
		},
		{
			"bufferView":22,
			"componentType":5126,
			"count":517,
			"max":[
				4.872381210327148,
				0.27555420994758606,
				0.3734653890132904
			],
			"min":[
				-1.936232089996338,
				-0.4736364483833313,
				-6.434898376464844
			],
			"type":"VEC3"
		},
		{
			"bufferView":23,
			"componentType":5126,
			"count":517,
			"type":"VEC2"
		},
		{
			"bufferView":24,
			"componentType":5126,
			"count":517,
			"type":"VEC3"
		},
		{
			"bufferView":25,
			"componentType":5123,
			"count":1083,
			"type":"SCALAR"
		},
		{
			"bufferView":26,
			"componentType":5126,
			"count":66,
			"max":[
				1,
				2.4888765811920166,
				1
			],
			"min":[
				-1,
				-1,
				-1.0000001192092896
			],
			"type":"VEC3"
		},
		{
			"bufferView":27,
			"componentType":5126,
			"count":66,
			"type":"VEC2"
		},
		{
			"bufferView":28,
			"componentType":5126,
			"count":66,
			"type":"VEC3"
		},
		{
			"bufferView":29,
			"componentType":5123,
			"count":180,
			"type":"SCALAR"
		},
		{
			"bufferView":30,
			"componentType":5126,
			"count":216,
			"max":[
				2.104910373687744,
				20.704299926757812,
				273.8435363769531
			],
			"min":[
				-2.100210666656494,
				-159.06204223632812,
				-3.7752742767333984
			],
			"type":"VEC3"
		},
		{
			"bufferView":31,
			"componentType":5126,
			"count":216,
			"type":"VEC2"
		},
		{
			"bufferView":32,
			"componentType":5126,
			"count":216,
			"type":"VEC3"
		},
		{
			"bufferView":33,
			"componentType":5123,
			"count":324,
			"type":"SCALAR"
		},
		{
			"bufferView":34,
			"componentType":5126,
			"count":475,
			"max":[
				1.25,
				0.25,
				1.25
			],
			"min":[
				-1.25,
				-0.25,
				-1.25
			],
			"type":"VEC3"
		},
		{
			"bufferView":35,
			"componentType":5126,
			"count":475,
			"type":"VEC2"
		},
		{
			"bufferView":36,
			"componentType":5126,
			"count":475,
			"type":"VEC3"
		},
		{
			"bufferView":37,
			"componentType":5123,
			"count":1728,
			"type":"SCALAR"
		},
		{
			"bufferView":38,
			"componentType":5126,
			"count":44,
			"max":[
				3.9593849182128906,
				2.659066677093506,
				2.4589076042175293
			],
			"min":[
				-2.458925247192383,
				-2.6590662002563477,
				-3.959322929382324
			],
			"type":"VEC3"
		},
		{
			"bufferView":39,
			"componentType":5126,
			"count":44,
			"type":"VEC2"
		},
		{
			"bufferView":40,
			"componentType":5126,
			"count":44,
			"type":"VEC3"
		},
		{
			"bufferView":41,
			"componentType":5123,
			"count":84,
			"type":"SCALAR"
		},
		{
			"bufferView":42,
			"componentType":5126,
			"count":66,
			"max":[
				1,
				2.835280179977417,
				1.0000009536743164
			],
			"min":[
				-1,
				-2.091095209121704,
				-0.9999990463256836
			],
			"type":"VEC3"
		},
		{
			"bufferView":43,
			"componentType":5126,
			"count":66,
			"type":"VEC2"
		},
		{
			"bufferView":44,
			"componentType":5126,
			"count":66,
			"type":"VEC3"
		},
		{
			"bufferView":45,
			"componentType":5123,
			"count":192,
			"type":"SCALAR"
		}
	],
	"bufferViews":[
		{
			"buffer":0,
			"byteLength":5520,
			"byteOffset":0,
			"target":34962
		},
		{
			"buffer":0,
			"byteLength":3680,
			"byteOffset":5520,
			"target":34962
		},
		{
			"buffer":0,
			"byteLength":5520,
			"byteOffset":9200,
			"target":34962
		},
		{
			"buffer":0,
			"byteLength":1920,
			"byteOffset":14720,
			"target":34963
		},
		{
			"buffer":0,
			"byteLength":207713,
			"byteOffset":16640
		},
		{
			"buffer":0,
			"byteLength":90,
			"byteOffset":224356
		},
		{
			"buffer":0,
			"byteLength":672,
			"byteOffset":224448,
			"target":34962
		},
		{
			"buffer":0,
			"byteLength":448,
			"byteOffset":225120,
			"target":34962
		},
		{
			"buffer":0,
			"byteLength":672,
			"byteOffset":225568,
			"target":34962
		},
		{
			"buffer":0,
			"byteLength":276,
			"byteOffset":226240,
			"target":34963
		},
		{
			"buffer":0,
			"byteLength":720,
			"byteOffset":226516,
			"target":34962
		},
		{
			"buffer":0,
			"byteLength":480,
			"byteOffset":227236,
			"target":34962
		},
		{
			"buffer":0,
			"byteLength":720,
			"byteOffset":227716,
			"target":34962
		},
		{
			"buffer":0,
			"byteLength":204,
			"byteOffset":228436,
			"target":34963
		},
		{
			"buffer":0,
			"byteLength":10320,
			"byteOffset":228640,
			"target":34962
		},
		{
			"buffer":0,
			"byteLength":6880,
			"byteOffset":238960,
			"target":34962
		},
		{
			"buffer":0,
			"byteLength":10320,
			"byteOffset":245840,
			"target":34962
		},
		{
			"buffer":0,
			"byteLength":3300,
			"byteOffset":256160,
			"target":34963
		},
		{
			"buffer":0,
			"byteLength":2928,
			"byteOffset":259460,
			"target":34962
		},
		{
			"buffer":0,
			"byteLength":1952,
			"byteOffset":262388,
			"target":34962
		},
		{
			"buffer":0,
			"byteLength":2928,
			"byteOffset":264340,
			"target":34962
		},
		{
			"buffer":0,
			"byteLength":888,
			"byteOffset":267268,
			"target":34963
		},
		{
			"buffer":0,
			"byteLength":6204,
			"byteOffset":268156,
			"target":34962
		},
		{
			"buffer":0,
			"byteLength":4136,
			"byteOffset":274360,
			"target":34962
		},
		{
			"buffer":0,
			"byteLength":6204,
			"byteOffset":278496,
			"target":34962
		},
		{
			"buffer":0,
			"byteLength":2166,
			"byteOffset":284700,
			"target":34963
		},
		{
			"buffer":0,
			"byteLength":792,
			"byteOffset":286868,
			"target":34962
		},
		{
			"buffer":0,
			"byteLength":528,
			"byteOffset":287660,
			"target":34962
		},
		{
			"buffer":0,
			"byteLength":792,
			"byteOffset":288188,
			"target":34962
		},
		{
			"buffer":0,
			"byteLength":360,
			"byteOffset":288980,
			"target":34963
		},
		{
			"buffer":0,
			"byteLength":2592,
			"byteOffset":289340,
			"target":34962
		},
		{
			"buffer":0,
			"byteLength":1728,
			"byteOffset":291932,
			"target":34962
		},
		{
			"buffer":0,
			"byteLength":2592,
			"byteOffset":293660,
			"target":34962
		},
		{
			"buffer":0,
			"byteLength":648,
			"byteOffset":296252,
			"target":34963
		},
		{
			"buffer":0,
			"byteLength":5700,
			"byteOffset":296900,
			"target":34962
		},
		{
			"buffer":0,
			"byteLength":3800,
			"byteOffset":302600,
			"target":34962
		},
		{
			"buffer":0,
			"byteLength":5700,
			"byteOffset":306400,
			"target":34962
		},
		{
			"buffer":0,
			"byteLength":3456,
			"byteOffset":312100,
			"target":34963
		},
		{
			"buffer":0,
			"byteLength":528,
			"byteOffset":315556,
			"target":34962
		},
		{
			"buffer":0,
			"byteLength":352,
			"byteOffset":316084,
			"target":34962
		},
		{
			"buffer":0,
			"byteLength":528,
			"byteOffset":316436,
			"target":34962
		},
		{
			"buffer":0,
			"byteLength":168,
			"byteOffset":316964,
			"target":34963
		},
		{
			"buffer":0,
			"byteLength":792,
			"byteOffset":317132,
			"target":34962
		},
		{
			"buffer":0,
			"byteLength":528,
			"byteOffset":317924,
			"target":34962
		},
		{
			"buffer":0,
			"byteLength":792,
			"byteOffset":318452,
			"target":34962
		},
		{
			"buffer":0,
			"byteLength":384,
			"byteOffset":319244,
			"target":34963
		}
	],
	"samplers":[
		{
			"magFilter":9729,
			"minFilter":9987
		}
	],
	"buffers":[
		{
			"byteLength":319628,
			"uri":"data:application/octet-stream;base64,"
		}
	]
}
